<svg id="Layer_1" data-name="Layer 1" xmlns="http://www.w3.org/2000/svg" xmlns:xlink="http://www.w3.org/1999/xlink" viewBox="0 0 1920 75.83"><defs><style>.cls-1{fill:none;}.cls-2{clip-path:url(#clip-path);}.cls-3{fill:#215dd6;}</style><clipPath id="clip-path"><rect class="cls-1" x="2.94" y="2.55" width="1917.96" height="73.53"/></clipPath></defs><g class="cls-2"><g id="Path_1" data-name="Path 1"><path class="cls-1" d="M2222.19,12.71s-28.63,2.11-85.89,4.92C2080,20.4,1996.57,23.8,1886.47,26.5c-107.51,2.63-240.06,4.58-398.19,4.62-154.4,0-333.68-1.74-540.15-6.5-203-4.68-385.29-2.32-540,3.6C260,33.88,139.39,42.72,46.51,51.67-42.09,60.21-106,68.9-147,75.31c-39.78,6.21-59,10.42-59,10.42"/><path class="cls-3" d="M644.65,21.79l2.91,0,2.9,0,2.9,0,2.9,0q17.34-.15,34.85-.23t35.19-.09q17.67,0,35.39,0t35.46.17q18.52.13,37.22.33t37.49.49q18.79.28,37.59.64t37.53.79q36.69.84,73.1,1.58t72.58,1.37q36.16.63,71.85,1.15t70.93.92q32,.38,63.85.65t63.45.46q31.63.18,62.86.27t62.08.08q18.84,0,37.54-.05t37.3-.12q18.6-.07,37-.19t36.78-.27q32.24-.27,63.92-.66t63-.88q31.34-.51,62-1.12t61-1.37q18.66-.45,37-1t36.53-1.06q18.14-.56,35.88-1.15t35.11-1.23q13.89-.51,27.46-1t26.81-1.1q13.24-.57,26.06-1.15t25.22-1.2q21.12-1,37.14-1.94t26.88-1.56c7.22-.44,12.68-.8,16.35-1.05l5.62-.39-.42,1.82-5.61.39c-3.66.24-9.11.6-16.32,1s-16.15,1-26.83,1.55-23,1.24-37.06,1.92q-12.35.61-25.17,1.19t-26,1.14q-13.18.57-26.75,1.1t-27.4,1q-17.27.63-35,1.22T1960,25.35q-18,.55-36.45,1t-37,1q-30.09.73-60.86,1.35t-61.91,1.11q-31.14.5-62.88.88t-63.79.64q-18.27.15-36.7.26t-37,.19q-18.52.07-37.21.12t-37.45,0q-30.69,0-61.95-.08t-62.72-.28q-31.49-.2-63.32-.47t-63.72-.65q-35.07-.41-70.78-.93t-71.7-1.15q-36-.63-72.43-1.37t-73-1.59q-18.66-.44-37.43-.79T874.34,24q-18.72-.27-37.39-.48t-37.13-.34Q782.17,23,764.46,23t-35.31,0Q711.54,23,694,23t-34.76.22l-2.9,0-2.9,0-2.9,0-2.89,0q-15,.14-30,.34t-29.85.44q-14.85.26-29.59.54T529,25.33q-15.11.34-30.2.76t-30,.86q-14.91.47-29.68,1T409.86,29q-49.91,1.9-98.12,4.38-47.64,2.45-93.29,5.42-45.06,2.94-87.87,6.36-42.23,3.39-82,7.21-15.46,1.49-30.53,3t-29.5,3.14q-14.43,1.59-28.37,3.23T-67,65.05q-10.59,1.33-20.82,2.69t-20,2.71q-9.73,1.35-19,2.73C-133,74.09-139,75-144.89,75.92q-14.93,2.33-26,4.24t-18.33,3.27c-4.86.9-8.51,1.62-11,2.11s-3.68.76-3.73.78l-4.34-1.18c.05,0,1.29-.28,3.73-.77s6.09-1.22,11-2.13,11-2,18.34-3.29,16.07-2.7,26-4.26q8.82-1.38,18.09-2.75t19.06-2.75q9.8-1.36,20-2.72t20.83-2.7q13.3-1.68,27.18-3.32t28.41-3.25Q-1.12,55.6,13.87,54t30.57-3q39.78-3.84,82.1-7.25,42.84-3.45,88-6.41,45.68-3,93.45-5.46,48.26-2.49,98.31-4.41,14.55-.55,29.31-1.07t29.74-1q15-.47,30.07-.88t30.26-.77q14.58-.35,29.32-.64t29.67-.54q14.91-.25,29.91-.45T644.65,21.79Z"/></g><g id="Path_42" data-name="Path 42"><path class="cls-1" d="M2222.25,20.7s-28.63,2.12-85.89,4.93c-56.34,2.76-139.73,6.16-249.83,8.86-107.51,2.64-240.06,4.59-398.19,4.62-154.4,0-333.68-1.74-540.15-6.5-203-4.67-385.29-2.31-540.05,3.6C260.07,41.88,139.45,50.71,46.57,59.66-42,68.2-105.94,76.89-147,83.3c-39.78,6.21-59,10.42-59,10.42"/><path class="cls-3" d="M644.71,29.78l2.91,0,2.9,0,2.9,0,2.9,0q17.34-.15,34.85-.24t35.19-.09q17.67,0,35.39,0t35.46.17q18.52.14,37.22.34t37.49.48q18.8.29,37.59.64t37.53.79q36.69.84,73.1,1.58t72.58,1.37q36.16.63,71.85,1.15t70.93.93q32,.36,63.85.64t63.45.46q31.64.2,62.86.27t62.08.08q18.84,0,37.54,0t37.3-.12q18.6-.07,37.05-.19t36.78-.27q32.23-.27,63.92-.65t63-.89q31.34-.49,62-1.12t61-1.36q18.66-.47,37.05-1t36.53-1.05q18.13-.56,35.88-1.15t35.11-1.24q13.89-.51,27.46-1.05t26.81-1.1q13.24-.57,26.06-1.15t25.22-1.2q21.12-1,37.14-1.93t26.88-1.57c7.22-.44,12.68-.8,16.35-1.05s5.55-.38,5.62-.39l-.42,1.82-5.61.39c-3.66.24-9.11.6-16.32,1s-16.15,1-26.83,1.55-23,1.24-37.06,1.93q-12.34.6-25.17,1.18t-26,1.15q-13.18.55-26.75,1.09t-27.4,1q-17.26.63-35,1.23t-35.81,1.14q-18,.54-36.45,1t-37,1q-30.09.74-60.86,1.35t-61.91,1.11q-31.14.49-62.88.87t-63.79.64q-18.27.15-36.7.27t-37,.18q-18.52.09-37.21.12t-37.45,0q-30.69,0-62-.08t-62.72-.28q-31.49-.18-63.32-.46t-63.72-.66q-35.07-.41-70.78-.93t-71.7-1.15q-36-.63-72.43-1.37t-72.95-1.59q-18.66-.42-37.43-.78T874.4,32q-18.72-.28-37.39-.49t-37.13-.34Q782.23,31,764.52,31t-35.31,0Q711.6,31,694.1,31t-34.76.22l-2.9,0-2.9,0-2.9,0-2.89,0q-15,.15-30,.34t-29.85.45q-14.85.24-29.59.53t-29.26.64q-15.1.34-30.2.76t-30,.87q-14.91.45-29.68,1T409.92,37Q360,38.88,311.8,41.35q-47.64,2.44-93.29,5.42-45.06,2.94-87.87,6.37-42.22,3.38-82,7.2-15.47,1.48-30.53,3t-29.5,3.14q-14.43,1.59-28.37,3.23t-27.17,3.3c-7,.88-14,1.78-20.81,2.68s-13.44,1.8-20,2.71-12.84,1.82-19,2.73S-139,83-144.83,83.91q-14.92,2.32-26,4.24t-18.33,3.27q-7.29,1.36-11,2.12c-2.44.49-3.68.76-3.73.77l-4.34-1.17c.05,0,1.29-.29,3.73-.78s6.09-1.22,11-2.13,11-2,18.34-3.28,16.07-2.71,26-4.27q8.82-1.38,18.09-2.75T-112,77.19q9.8-1.38,20-2.73t20.83-2.7q13.3-1.68,27.18-3.32T-15.6,65.2Q-1.06,63.58,13.93,62T44.49,59q39.79-3.84,82.11-7.25,42.84-3.43,88-6.4,45.67-3,93.45-5.46,48.26-2.49,98.31-4.42,14.55-.56,29.31-1.07t29.74-1q15-.46,30.07-.87t30.26-.77q14.58-.35,29.32-.64t29.67-.55q14.91-.25,29.91-.45T644.71,29.78Z"/></g></g></svg>