<svg id="Layer_1" data-name="Layer 1" xmlns="http://www.w3.org/2000/svg" xmlns:xlink="http://www.w3.org/1999/xlink" viewBox="0 0 1920 75.83"><defs><style>.cls-1{fill:none;}.cls-2{clip-path:url(#clip-path);}.cls-3{fill:#215dd6;}</style><clipPath id="clip-path"><rect class="cls-1" x="-0.72" y="-1.53" width="1920" height="79.66"/></clipPath></defs><g class="cls-2"><g id="Group_26" data-name="Group 26"><g id="Path_1" data-name="Path 1"><path class="cls-1" d="M-50.54,43.94s22.5-1.36,67.22-2.89c44.12-1.5,109.44-3.13,195.55-3.75,84.48-.6,188.78-.21,313.25,2.25C647.75,42,790,46.4,954.14,53.92c162.49,7.45,312,8.37,441.27,5.67,124.59-2.6,228.46-8.51,309.82-15,78-6.24,135.6-13,173.1-18.19,36.42-5,54.62-8.51,54.62-8.51"/><path class="cls-3" d="M1199.58,61.74l-2.38,0-2.38,0-2.38,0-2.38,0q-14.18-.15-28.48-.37t-28.67-.49q-14.39-.28-28.75-.62t-28.71-.74q-15-.41-30-.9t-30.16-1q-15.09-.55-30.15-1.18t-30-1.31q-56-2.57-110.79-4.74t-108.53-4q-53.79-1.8-106.2-3.21Q577,41.64,525.83,40.63q-14.9-.3-29.65-.55t-29.44-.49q-14.67-.23-29.22-.41t-29-.35q-25.36-.27-50.3-.43t-49.53-.22q-24.61-.06-48.72,0t-47.84.23q-14.62.11-29,.25T154.47,39q-14.21.2-28.11.43T98.87,40q-10.86.23-21.48.48t-21,.53Q46,41.24,36,41.55t-19.73.64q-16.51.57-29.06,1.09t-21,.92c-5.66.27-9.94.49-12.81.65s-4.36.24-4.41.25l1-2.3,4.4-.25q4.32-.22,12.79-.64c5.64-.26,12.64-.58,21-.91s18-.71,29-1.08q9.65-.33,19.67-.63t20.33-.57q10.32-.28,20.92-.53t21.43-.47q13.51-.27,27.41-.51t28-.42q14.13-.2,28.54-.34t29-.24Q236,36,260.13,36t48.59,0q24.46.06,49.41.22t50.18.45q14.37.16,28.89.35l29.11.42,29.34.48q14.7.27,29.54.56,51,1,103.43,2.43,52.23,1.41,105.89,3.21,53.44,1.8,108.23,4,54.6,2.19,110.47,4.75,14.88.67,29.89,1.3t30,1.17q15,.55,30,1t29.93.9q14.27.4,28.6.74t28.64.62q14.3.27,28.56.49t28.37.38l2.38,0,2.37,0,2.37,0,2.38,0q25,.24,50,.29t49.66-.08q24.65-.14,49-.45t48.17-.81q41.86-.87,82.67-2.27,40.39-1.39,79.46-3.3,38.64-1.87,75.72-4.24,36.65-2.34,71.52-5.12,13.58-1.08,26.86-2.23T1756,39.05q12.8-1.2,25.22-2.45t24.28-2.53q9.49-1,18.7-2.08t18-2.13q8.8-1.08,17.27-2.16t16.49-2.19q13.65-1.86,23.88-3.42c6.78-1,12.45-1.93,17-2.67s7.93-1.34,10.23-1.75l3.5-.64,4.84,1.68-3.52.64c-2.29.41-5.71,1-10.24,1.76s-10.21,1.66-17,2.69-14.8,2.2-23.91,3.45q-8.07,1.11-16.52,2.21t-17.3,2.18q-8.87,1.08-18.05,2.15t-18.73,2.1q-12,1.3-24.33,2.56t-25.28,2.46q-12.88,1.22-26.14,2.37t-26.92,2.25q-34.93,2.8-71.7,5.17-37.14,2.38-75.92,4.29-39.16,1.92-79.71,3.34-40.89,1.43-82.93,2.31-24,.49-48.33.83t-49.2.46q-24.83.14-49.83.09T1199.58,61.74Z"/></g></g><g id="Group_27" data-name="Group 27"><g id="Path_1-2" data-name="Path 1-2"><path class="cls-1" d="M-50.54,51.94s22.5-1.36,67.22-2.89c44.12-1.5,109.44-3.13,195.55-3.75,84.48-.6,188.78-.21,313.25,2.25C647.75,50,790,54.4,954.14,61.92c162.49,7.45,312,8.37,441.27,5.67,124.59-2.6,228.46-8.51,309.82-15,78-6.24,135.6-13,173.1-18.19,36.42-5,54.62-8.51,54.62-8.51"/><path class="cls-3" d="M1199.58,69.74l-2.38,0-2.38,0-2.38,0-2.38,0q-14.18-.15-28.48-.37t-28.67-.49q-14.39-.28-28.75-.62t-28.71-.74q-15-.4-30-.9t-30.16-1q-15.09-.56-30.15-1.18t-30-1.31q-56-2.57-110.79-4.74t-108.53-4q-53.79-1.8-106.2-3.21Q577,49.64,525.83,48.63q-14.9-.3-29.65-.55t-29.44-.49q-14.67-.23-29.22-.41t-29-.35q-25.36-.27-50.3-.43t-49.53-.22q-24.61-.06-48.72,0t-47.84.23q-14.62.11-29,.25T154.47,47q-14.21.2-28.11.43T98.87,48q-10.86.23-21.48.48t-21,.53Q46,49.24,36,49.55t-19.73.64q-16.51.57-29.06,1.09t-21,.92c-5.66.27-9.94.49-12.81.65s-4.36.24-4.41.25l1-2.3,4.4-.25q4.32-.22,12.79-.64c5.64-.26,12.64-.58,21-.91s18-.71,29-1.08q9.65-.33,19.67-.63t20.33-.57q10.32-.28,20.92-.53t21.43-.47q13.51-.27,27.41-.51t28-.42q14.13-.2,28.54-.34t29-.24Q236,44,260.13,44t48.59,0q24.46.06,49.41.22t50.18.45q14.37.16,28.89.35l29.11.42,29.33.48q14.72.27,29.55.56,51,1,103.43,2.43,52.23,1.41,105.89,3.21,53.44,1.8,108.23,4,54.6,2.19,110.47,4.75,14.88.67,29.89,1.3t30,1.17q15,.55,30,1.05t29.93.9q14.27.41,28.6.74t28.64.62q14.3.27,28.56.49t28.37.38l2.38,0,2.37,0,2.37,0,2.38,0q25,.24,50,.29t49.66-.08q24.65-.14,49-.45t48.17-.81q41.86-.87,82.67-2.27,40.39-1.39,79.46-3.3,38.64-1.87,75.72-4.24,36.65-2.34,71.52-5.12,13.58-1.08,26.86-2.23T1756,47.05q12.8-1.2,25.22-2.45t24.28-2.53q9.49-1,18.7-2.08t18-2.13q8.8-1.08,17.27-2.16t16.49-2.19q13.65-1.86,23.88-3.42c6.78-1,12.45-1.93,17-2.67s7.93-1.34,10.23-1.75l3.5-.64,4.83,1.68-3.51.64c-2.29.41-5.71,1-10.24,1.76s-10.21,1.66-17,2.69-14.8,2.2-23.91,3.45q-8.07,1.13-16.52,2.21t-17.3,2.18q-8.87,1.08-18.05,2.15t-18.73,2.1q-12,1.3-24.33,2.56t-25.28,2.46q-12.88,1.22-26.14,2.37t-26.93,2.25q-34.92,2.8-71.69,5.17-37.14,2.38-75.92,4.29-39.16,1.92-79.71,3.34-40.89,1.42-82.93,2.31-24,.49-48.33.83t-49.2.46q-24.83.13-49.83.09T1199.58,69.74Z"/></g></g></g></svg>