<svg id="Layer_1" data-name="Layer 1" xmlns="http://www.w3.org/2000/svg" viewBox="0 0 75 65"><defs><style>.cls-1,.cls-2{fill:none;stroke-miterlimit:10;stroke-width:1.42px;}.cls-1{stroke:#215dd6;}.cls-2{stroke:#2f383a;}</style></defs><circle class="cls-1" cx="37.8" cy="31.95" r="5.74"/><path class="cls-2" d="M12.67,15.69c-.18.86-.22,2.82,3.19,3.12A2.56,2.56,0,0,0,17,18.62L29.4,13.28a3.79,3.79,0,0,1,1.5-.3h.15c.39,0,.63.35.45.65A3.27,3.27,0,0,0,32,18.11l18.9,5.25s2.86.86,7.29-1a17.75,17.75,0,0,0,4.56-2.46.72.72,0,0,0,.17-.94l-4.84-8a.81.81,0,0,0-.53-.36L35.83,6.13s-3.22-.9-10.74,2.08S14,14.16,13.06,15A1.23,1.23,0,0,0,12.67,15.69Z"/><line class="cls-2" x1="51" y1="16.76" x2="31.08" y2="12.98"/><path class="cls-2" d="M62.92,48.21c.19-.85.23-2.82-3.19-3.11a2.34,2.34,0,0,0-1.17.19L46.2,50.62a3.84,3.84,0,0,1-1.5.31h-.16c-.39,0-.63-.35-.45-.65a3.27,3.27,0,0,0-.46-4.48L24.74,40.54s-2.87-.85-7.3,1A17.52,17.52,0,0,0,12.89,44a.72.72,0,0,0-.18,1l4.84,8a.79.79,0,0,0,.53.35l21.68,4.45s3.22.9,10.74-2.08,11.09-5.94,12-6.82A1.31,1.31,0,0,0,62.92,48.21Z"/><line class="cls-2" x1="24.59" y1="47.14" x2="44.51" y2="50.93"/></svg>