<svg id="Layer_1" data-name="Layer 1" xmlns="http://www.w3.org/2000/svg" viewBox="0 0 85 65"><defs><style>.cls-1,.cls-4{fill:none;}.cls-1,.cls-3{stroke:#2f383a;}.cls-1,.cls-2,.cls-3,.cls-4{stroke-miterlimit:10;stroke-width:1.42px;}.cls-2,.cls-3{fill:#fff;}.cls-2,.cls-4{stroke:#215dd6;}</style></defs><path class="cls-1" d="M78.36,44.44,65.27,46.68A2.7,2.7,0,0,1,62,44V19.08a2.7,2.7,0,0,1,3.29-2.73l13.09,2.24c1.81.31,3.29,1.72,3.29,3.15V41.29C81.65,42.71,80.17,44.12,78.36,44.44Z"/><path class="cls-1" d="M22.1,46.8,6.12,43c-1-.25-1.85-1-1.85-1.76V21.37c0-.73.83-1.49,1.85-1.72l16-3.46a1.43,1.43,0,0,1,1.84,1.44V45.4A1.4,1.4,0,0,1,22.1,46.8Z"/><path class="cls-1" d="M4.61,31.34A1.74,1.74,0,0,0,7.05,31,.63.63,0,0,1,8,31a2.41,2.41,0,0,0,1.61,1.33,2.1,2.1,0,0,0,2.25-1.12.54.54,0,0,1,.87,0,2.39,2.39,0,0,0,1.92,1.35,2.43,2.43,0,0,0,2.11-1.26.71.71,0,0,1,1,0c.5.82.9,1.52,2.2,1.48a2.12,2.12,0,0,0,1.83-1.19.59.59,0,0,1,.93,0c.41.58.68,1.41,1.24,1.41"/><path class="cls-2" d="M59.1,34.92a3.93,3.93,0,0,1-2.47.31c-1.33-.46-1.58-1.43-1.58-3a3.22,3.22,0,0,1,1.49-2.42s.51-.61-1.69.09a3.44,3.44,0,0,0-1.21.74,6.69,6.69,0,0,0-1,1.16,13.18,13.18,0,0,0-1.27,2.32c-.32.75-.77,1.14-1.36,1.15a3,3,0,0,1-.6,0,3.64,3.64,0,0,1-.63-.16,2,2,0,0,1-1.35-1.27,4.26,4.26,0,0,1-.23-1.25,3.84,3.84,0,0,1,.13-1.23,3,3,0,0,1,1.37-1.69s.51-.61-1.7.09c-.82.26-1.39,1.19-1.85,2a10,10,0,0,1-1.72,2.56,2.71,2.71,0,0,1-2.1.66c-1.55-.25-2.29-2.3-1.74-3.92a3.17,3.17,0,0,1,1.31-1.62s.51-.61-1.69.09a3.44,3.44,0,0,0-1.21.74,7.27,7.27,0,0,0-1,1.17,13.45,13.45,0,0,0-1.26,2.32c-.32.74-.77,1.14-1.36,1.15a4,4,0,0,1-.6,0,4.91,4.91,0,0,1-.63-.17,2,2,0,0,1-1.35-1.26,4.33,4.33,0,0,1-.23-1.26,3.84,3.84,0,0,1,.13-1.23,3,3,0,0,1,1.37-1.69s.51-.61-1.7.1-4.09,3.91-4.09,3.91"/><path class="cls-3" d="M62,33.79s1.16-1.36,3.41-.07,3.27-.44,4.46-.32c.93.09,1.62.76,2.87.89s1.61-.94,2.42-.86,1.64.77,2.53.79,1.28-.92,2.26-.88a2.7,2.7,0,0,1,1.87,1"/><rect class="cls-4" x="27.27" y="15.82" width="31.46" height="31.46" rx="3.29"/></svg>