<svg id="Layer_1" data-name="Layer 1" xmlns="http://www.w3.org/2000/svg" viewBox="0 0 240 130"><defs><style>.cls-1,.cls-2,.cls-3,.cls-4,.cls-5,.cls-6{fill:none;stroke:#215dd6;stroke-miterlimit:10;}.cls-1{stroke-width:3px;}.cls-2{stroke-width:2.5px;}.cls-3{stroke-width:2px;}.cls-4{stroke-width:1.5px;}.cls-6{stroke-width:0.5px;}</style></defs><circle class="cls-1" cx="97.02" cy="94.15" r="5.42"/><circle class="cls-2" cx="97.02" cy="94.15" r="11.33"/><circle class="cls-3" cx="97.02" cy="94.15" r="16.63"/><circle class="cls-4" cx="97.02" cy="94.15" r="21.83"/><circle class="cls-5" cx="97.02" cy="94.15" r="26.66"/><circle class="cls-6" cx="97.02" cy="94.15" r="31.82"/><circle class="cls-1" cx="174.51" cy="47.79" r="5.42"/><circle class="cls-2" cx="174.51" cy="47.79" r="11.33"/><circle class="cls-3" cx="174.51" cy="47.79" r="16.63"/><circle class="cls-4" cx="174.51" cy="47.79" r="21.83"/><circle class="cls-5" cx="174.51" cy="47.79" r="26.66"/><circle class="cls-6" cx="174.51" cy="47.79" r="31.82"/><circle class="cls-1" cx="53.86" cy="74.45" r="6.22"/><circle class="cls-2" cx="53.86" cy="74.45" r="13"/><circle class="cls-3" cx="53.86" cy="74.45" r="19.08"/><circle class="cls-4" cx="53.86" cy="74.45" r="25.04"/><circle class="cls-5" cx="53.86" cy="74.45" r="30.57"/><circle class="cls-6" cx="53.86" cy="74.45" r="36.5"/><circle class="cls-1" cx="198.56" cy="88.73" r="3.72"/><circle class="cls-2" cx="198.56" cy="88.73" r="7.77"/><circle class="cls-3" cx="198.56" cy="88.73" r="11.41"/><circle class="cls-4" cx="198.56" cy="88.73" r="14.98"/><circle class="cls-5" cx="198.56" cy="88.73" r="18.29"/><circle class="cls-6" cx="198.56" cy="88.73" r="21.83"/><circle class="cls-1" cx="115.01" cy="47.79" r="7.21"/><circle class="cls-2" cx="115.01" cy="47.79" r="15.07"/><circle class="cls-3" cx="115.01" cy="47.79" r="22.12"/><circle class="cls-4" cx="115.01" cy="47.79" r="29.04"/><circle class="cls-5" cx="115.01" cy="47.79" r="35.45"/><circle class="cls-6" cx="115.01" cy="47.79" r="42.33"/><circle class="cls-1" cx="153.34" cy="90.12" r="4.64"/><circle class="cls-2" cx="153.34" cy="90.12" r="9.7"/><circle class="cls-3" cx="153.34" cy="90.12" r="14.24"/><circle class="cls-4" cx="153.34" cy="90.12" r="18.7"/><circle class="cls-5" cx="153.34" cy="90.12" r="22.83"/><circle class="cls-6" cx="153.34" cy="90.12" r="27.25"/></svg>