<svg id="Layer_1" data-name="Layer 1" xmlns="http://www.w3.org/2000/svg" viewBox="0 0 240 130"><defs><style>.cls-1,.cls-2,.cls-3{fill:none;stroke:#215dd6;}.cls-1,.cls-2{stroke-miterlimit:10;stroke-width:2px;}.cls-2{stroke-linecap:round;}</style></defs><rect id="Rectangle_60" data-name="Rectangle 60" class="cls-1" x="38.77" y="19.5" width="40.13" height="47.06" rx="2.58"/><rect id="Rectangle_61" data-name="Rectangle 61" class="cls-1" x="101.77" y="12.09" width="40.13" height="61.36" rx="2.58"/><rect id="Rectangle_62" data-name="Rectangle 62" class="cls-1" x="162.76" y="20.65" width="40.13" height="45.88" rx="2.58"/><path id="Path_240" data-name="Path 240" class="cls-2" d="M101.59,89.77a35.55,35.55,0,0,1-7,6.48,22.62,22.62,0,0,1-6.81,3.21,19.69,19.69,0,0,1-6.39.67A22,22,0,0,1,75.56,99a27.38,27.38,0,0,1-5-2.28A35,35,0,0,1,66.67,94c-.91-.72-1.78-1.48-2.62-2.29-.43-.42-.85-.85-1.27-1.29-.25-.26-.35-.08-.56.16s-.33.42-.5.61-.57.63-.86.93c-.56.58-1.13,1.14-1.73,1.68a31.23,31.23,0,0,1-3.44,2.73,22.72,22.72,0,0,1-6.75,3.14,20.14,20.14,0,0,1-6.42.65,22.84,22.84,0,0,1-5.84-1.16,29.7,29.7,0,0,1-5.08-2.29,37.61,37.61,0,0,1-7.09-5.25c-.53-.53-1.07-1-1.6-1.6l-.22-.24"/><path id="Path_241" data-name="Path 241" class="cls-2" d="M180.77,90.25a34.78,34.78,0,0,1-7,6.46,22.74,22.74,0,0,1-6.81,3.21,19.42,19.42,0,0,1-6.39.67,22.23,22.23,0,0,1-5.77-1.16,27.85,27.85,0,0,1-5-2.28,33.74,33.74,0,0,1-3.94-2.68c-.9-.7-1.78-1.48-2.62-2.28-.43-.42-.85-.86-1.27-1.29-.25-.27-.35-.08-.56.16s-.32.41-.5.61-.57.62-.87.93c-.55.58-1.13,1.14-1.72,1.68A30,30,0,0,1,134.89,97a22.75,22.75,0,0,1-6.75,3.15,19.83,19.83,0,0,1-6.42.64,22.4,22.4,0,0,1-5.84-1.15,29,29,0,0,1-5.08-2.3,38.61,38.61,0,0,1-7.08-5.24l-1.6-1.61-.22-.25"/><path id="Path_242" data-name="Path 242" class="cls-2" d="M220.65,91.54c-.17.2-.32.41-.5.61s-.56.62-.86.93c-.56.58-1.13,1.14-1.73,1.68a30,30,0,0,1-3.44,2.72,23.06,23.06,0,0,1-6.74,3.15,19.86,19.86,0,0,1-6.42.64,22.91,22.91,0,0,1-5.85-1.16A28.23,28.23,0,0,1,190,97.82a34.26,34.26,0,0,1-4.12-2.74,35.36,35.36,0,0,1-3-2.51c-.54-.5-1.07-1-1.61-1.6l-.22-.24"/><line id="Line_20" data-name="Line 20" class="cls-2" x1="62.55" y1="90.52" x2="62.55" y2="114.02"/><line id="Line_21" data-name="Line 21" class="cls-2" x1="101.57" y1="90.05" x2="101.57" y2="113.88"/><line id="Line_22" data-name="Line 22" class="cls-2" x1="141.78" y1="92.56" x2="141.78" y2="113.88"/><line id="Line_23" data-name="Line 23" class="cls-2" x1="180.78" y1="91.69" x2="180.78" y2="113.88"/><line id="Line_24" data-name="Line 24" class="cls-2" x1="220.99" y1="91.52" x2="220.99" y2="113.57"/><g id="Waves"><path id="Path_238" data-name="Path 238" class="cls-3" d="M121.36,51.89a12.33,12.33,0,0,0,6.94-2.38,11.4,11.4,0,0,1,12.93,0,.44.44,0,0,0,.6-.13h0a.43.43,0,0,0-.12-.6,12.28,12.28,0,0,0-13.89,0c-4.34,2.95-8.57,2.95-12.93,0a.43.43,0,0,0-.6.12h0a.43.43,0,0,0,.12.6A12.27,12.27,0,0,0,121.36,51.89Z"/><path id="Path_239" data-name="Path 239" class="cls-3" d="M141.71,54.8a12.28,12.28,0,0,0-13.89,0c-4.35,3-8.57,3-12.93,0a.44.44,0,0,0-.6.12h0a.45.45,0,0,0,.12.61,11.32,11.32,0,0,0,13.89,0,11.44,11.44,0,0,1,12.93,0,.43.43,0,0,0,.6-.12h0A.44.44,0,0,0,141.71,54.8Z"/><path id="Path_243" data-name="Path 243" class="cls-3" d="M108.66,30a12.33,12.33,0,0,0,6.94-2.38,11.4,11.4,0,0,1,12.93,0,.44.44,0,0,0,.6-.13h0a.44.44,0,0,0-.13-.6,12.28,12.28,0,0,0-13.89,0c-4.34,2.95-8.57,2.95-12.92,0a.43.43,0,0,0-.6.12h0a.43.43,0,0,0,.11.6A12.32,12.32,0,0,0,108.66,30Z"/><path id="Path_244" data-name="Path 244" class="cls-3" d="M129,32.86a12.28,12.28,0,0,0-13.89,0c-4.34,3-8.57,3-12.92,0a.43.43,0,0,0-.6.12h0a.44.44,0,0,0,.11.61,11.34,11.34,0,0,0,13.9,0,11.44,11.44,0,0,1,12.93,0,.43.43,0,0,0,.6-.12h0A.44.44,0,0,0,129,32.86Z"/></g><g id="Waves-2"><path id="Path_238-2" data-name="Path 238-2" class="cls-3" d="M172.62,35.09a7.69,7.69,0,0,0,4.31-1.48,7.1,7.1,0,0,1,8,0,.28.28,0,0,0,.38-.08h0a.28.28,0,0,0-.08-.38,7.64,7.64,0,0,0-8.63,0,6.55,6.55,0,0,1-8,0,.26.26,0,0,0-.37.08h0a.27.27,0,0,0,.07.37A7.69,7.69,0,0,0,172.62,35.09Z"/><path id="Path_239-2" data-name="Path 239-2" class="cls-3" d="M185.26,44.52a7.64,7.64,0,0,0-8.63,0,6.53,6.53,0,0,1-8,0,.28.28,0,0,0-.38.07h0a.27.27,0,0,0,.08.38,7,7,0,0,0,8.63,0,7.11,7.11,0,0,1,8,0,.26.26,0,0,0,.37-.08h0A.27.27,0,0,0,185.26,44.52Z"/></g><g id="Waves-3"><path id="Path_238-3" data-name="Path 238-3" class="cls-3" d="M175.52,49.34a7.69,7.69,0,0,0-4.31,1.48,7.11,7.11,0,0,1-8,0,.27.27,0,0,0-.37.08h0a.28.28,0,0,0,.08.38,7.64,7.64,0,0,0,8.63,0,6.53,6.53,0,0,1,8,0,.28.28,0,0,0,.38-.08h0a.26.26,0,0,0-.08-.37A7.64,7.64,0,0,0,175.52,49.34Z"/><path id="Path_239-3" data-name="Path 239-3" class="cls-3" d="M162.88,39.91a7.64,7.64,0,0,0,8.63,0,6.56,6.56,0,0,1,8,0,.27.27,0,0,0,.37-.07h0a.27.27,0,0,0-.08-.38,7,7,0,0,0-8.63,0,7.11,7.11,0,0,1-8,0,.26.26,0,0,0-.37.08h0A.27.27,0,0,0,162.88,39.91Z"/></g><line id="Line_25" data-name="Line 25" class="cls-2" x1="22.35" y1="89.77" x2="22.35" y2="114.02"/><path id="Path_243-2" data-name="Path 243" class="cls-3" d="M44,48.61a9,9,0,0,0,5.1-1.75,8.43,8.43,0,0,1,9.51,0,.31.31,0,0,0,.44-.09h0a.31.31,0,0,0-.09-.44,9,9,0,0,0-10.21,0,7.75,7.75,0,0,1-9.5,0,.31.31,0,0,0-.44.09h0a.32.32,0,0,0,.09.44A9.07,9.07,0,0,0,44,48.61Z"/><path id="Path_243-3" data-name="Path 243" class="cls-3" d="M54,41.93a9,9,0,0,0,5.1-1.75,8.43,8.43,0,0,1,9.51,0,.3.3,0,0,0,.43-.09h0a.32.32,0,0,0-.1-.44,9,9,0,0,0-10.21,0,7.75,7.75,0,0,1-9.5,0,.31.31,0,0,0-.44.09h0a.32.32,0,0,0,.08.44A9.07,9.07,0,0,0,54,41.93Z"/><path id="Path_243-4" data-name="Path 243" class="cls-3" d="M63.69,35.81a9,9,0,0,0,5.1-1.75,8.39,8.39,0,0,1,9.51,0,.33.33,0,0,0,.44-.09h0a.33.33,0,0,0-.09-.44,9,9,0,0,0-10.22,0,7.75,7.75,0,0,1-9.5,0,.31.31,0,0,0-.44.09h0a.31.31,0,0,0,.09.44A9.05,9.05,0,0,0,63.69,35.81Z"/></svg>