<svg id="Layer_1" data-name="Layer 1" xmlns="http://www.w3.org/2000/svg" viewBox="0 0 240 130"><defs><style>.cls-1{fill:#215dd6;}</style></defs><path class="cls-1" d="M23.12,104.18c-1.82-.56-4.42-1.71-6.22-2.38-4.25-1.56-10.27-5.27-8.52-10.75,4.74-10,14.46-5.82,18.47,2.2,2.38,3.88,3.31,12.89-3.73,10.93Zm.1-.49c4.44.59,3.19-3.16,1.22-5.34-1.8-2.31-3.55-5-5.44-7.08-1.67-1.94-3.81-2.76-5.9-.86-2.49,1.82-2.4,4-.39,6.24,2.72,3,6.41,6,10.51,7Z"/><path class="cls-1" d="M78.78,65.16C78.1,59.5,76.63,52,81.07,47.37c2.79-2.71,7.29-1.75,10.18.18a8.43,8.43,0,0,1,3.45,5.79,16.23,16.23,0,0,1-7.07,15.28c-3.22,1.75-8.18.35-8.85-3.46Zm.48-.14a3.26,3.26,0,0,0,2.12,2.19,4,4,0,0,0,4.05-1.56c.26-.49,1-1.71,1.26-2.21a37.45,37.45,0,0,0,3.13-6.95c.5-1.7.83-3.48-.11-5C88.39,49.6,85,48.12,83,49.59c-2.39,2-3.11,5.48-3.83,8.58A15.09,15.09,0,0,0,79.26,65Z"/><path class="cls-1" d="M81.66,69c-4.93,2.68-8.85-4-10.51-7.68a17.32,17.32,0,0,1,.18-10.18l.07-.17,0,0c.11.27-.47-.36,1.29-.57,1.05.63.42.34.61.42l.05.07c.29.52.79,1.47,1.08,2a32.06,32.06,0,0,1,2.84,6.9c.47,1.32,1,2.63,1.48,3.94C77.3,61.3,76,58.7,74.64,56.32c-.92-1.47-2.09-2.86-3.11-4.26.21.12-.46-.23.6.41,1.76-.21,1.18-.84,1.28-.56,0,0,.07-.15,0,0-.29,3.31-.14,6.78,2.08,9.4,1,1.29,2.67,3.32,3.74,3.4a1.07,1.07,0,0,0-.55.23l2.93,4Z"/><path class="cls-1" d="M89.16,46.3c10.5,3,12.86,14.91,9.7,24.14a24.89,24.89,0,0,1-4.54,7.94c-4.24,5-7.75,7.93-5.52,14.9a42.76,42.76,0,0,0,8.37,15.2,36.85,36.85,0,0,1-5.38-7c-2.31-3.77-4.5-7.86-4.91-12.37-.49-4.75,3.41-8.59,5.86-12,6.13-7.66,7.12-22.88-3.63-26.74a5.51,5.51,0,0,0-.78-.21l.83-3.92Z"/><path class="cls-1" d="M114.44,44.24c1.1-4.1,1.84-8.42,4.14-12.12,1.31-2.1,3.78-4.32,6.56-3.69a7.78,7.78,0,0,1,5.49,5.72c1.25,6.65-4.08,13.6-10.23,15.56-3.58.9-6.83-1.9-6-5.47Zm.5.06c-.23,2,1.28,3.53,3.19,2.81.35-.12.73-.36.75-.52.81-1,1.93-2,2.77-3.05,2-2.45,5.24-5.48,5-8.63a4.43,4.43,0,0,0-2.36-3.26c-1.35-.49-2.81.9-3.77,2-2.51,3-5.14,6.64-5.63,10.67Z"/><path class="cls-1" d="M127.58,29.48C141.5,31.6,141.93,49,138.79,59.66a40.57,40.57,0,0,1-4.63,10.25c-3.49,6-9.39,11.68-8.08,19,1.43,7,9.46,11.28,10.59,18.54-1.23-5.52-6.2-8.81-9.34-13.2-7-9,.19-17.63,4.66-25.59a36.74,36.74,0,0,0,4.72-20.14c-.3-4.91-1.52-9.93-5.58-12.68a8,8,0,0,0-3.78-1.36l.23-5Z"/><path class="cls-1" d="M126.07,88.88c-2.35.89-3.66,2.68-2.78,5.21,1.2,4.51,1.35,7.72-3,10.36l-2.31,1.64c2.75-2.72,6-4.44,4.48-8.85-.37-1.35-1-2.68-1.41-4a6,6,0,0,1,2.45-6.14,7.56,7.56,0,0,1,1.45-.94l1.16,2.76Z"/><path class="cls-1" d="M125.94,32.46c-2.4-1.67-3.39-4.42-4.48-6.93A64.58,64.58,0,0,1,119,18.32a.74.74,0,0,0,1.36-.23c-.66,3.43-1,7.36.72,10.53.6,1,1.72,2,3,1.73a2,2,0,0,1-.94.09c-4.35-1.32-4.46-8.09-4.28-11.85a6.27,6.27,0,0,1,.11-.87.75.75,0,0,1,1.42,0,68.08,68.08,0,0,0,3.18,6.87c1,1.8,2.26,4.33,3.93,5.27l-1.5,2.6Z"/><path class="cls-1" d="M150.19,23.74c5-1.69,10.29-4.32,15.67-2.5,3.49,1.13,4.55,5.44,3.37,8.6A7.49,7.49,0,0,1,164.68,34c-5,1.94-13.36.79-16.25-4.08-1.21-2.31-.84-5.15,1.76-6.21Zm.24.45c-2.43,1.41-1.11,4,1.07,4.49.66,0,2,.3,2.7.41,2.2.35,4.57.7,6.72.83,1.87.09,4.29,0,4.94-2,1-2.95-.89-4.41-3.68-4.81-3.76-.54-8.23-.77-11.75,1.09Z"/><path class="cls-1" d="M172.82,85.46c-2,.21-4.09,1.56-3.91,3.87a6.92,6.92,0,0,1-2.06,5.34,20.41,20.41,0,0,1-3.38,2.24,22.94,22.94,0,0,0-2.88,2.62c.5-.73,1-1.45,1.55-2.15,1.46-2,4.37-3,4.81-5.6a6.79,6.79,0,0,0,0-2.34c-.58-2.63,1.36-5.45,3.83-6.41a8,8,0,0,1,1.53-.53l.48,3Z"/><path class="cls-1" d="M172.29,85.38a21.84,21.84,0,0,1,7.35,3.18,4.13,4.13,0,0,1,1.53,2c.51,1.31.26,2.66.58,3.83.57,1.65,2.42,1.52,4.09,1.22,2.42-.51,5.59-1,7.49,1.06a7.52,7.52,0,0,1,1.82,3.37c-.79-2.34-2.84-4.43-5.43-4.16-3,.21-7.67,3.06-9.51-.9-.53-1.24-.39-2.58-.9-3.64-.85-1.35-2.67-1.72-4.14-2.24a34.09,34.09,0,0,0-3.64-.77l.76-2.9Z"/><path class="cls-1" d="M161.56,23.3c-4.51-1.56-8.41-5.42-8.62-10.34l-.15-1.49c4.11,2.41,8,5.62,10.24,9.83a25.12,25.12,0,0,0-9.69-7.76l1.08-.74a8.71,8.71,0,0,0,1,2.77,10.74,10.74,0,0,0,6.92,4.83l-.76,2.9Z"/><path class="cls-1" d="M162.82,22.9c-3.51-5.6-5.21-12.69-1.94-18.77l.72,1.25a30.37,30.37,0,0,1,3.74,12.44,26.83,26.83,0,0,1,0,4.3A27.37,27.37,0,0,0,164,13.74a28.75,28.75,0,0,0-3.62-7.53l1.31-.12c-1.8,5.17.49,10.87,3.59,15l-2.43,1.77Z"/><path class="cls-1" d="M168.22,22.19A16.92,16.92,0,0,1,178.9,39c-.85,4.67-4,8.57-6.45,12.11-2,2.8-4.11,5.54-5.37,8.41a6,6,0,0,0-.62,3c1.09,5.43,6.36,9,7.75,14.49,1.06,3.63-.77,7.17-1.94,10.51A100.78,100.78,0,0,1,168,97c-3.39,5.15,1,10.91,5.52,13.56-5.12-2.68-9.47-8.37-6.28-13.94a90,90,0,0,0,5.21-14.48c1.54-5.19-2.52-8.88-5.5-12.93A16,16,0,0,1,163.76,63c-.53-3.43,1.46-6.65,3-9.42,2.52-4.25,5.94-8.61,7.55-13.06,1.93-5.18-2.6-11.95-7.56-13.53l1.43-4.79Z"/><path class="cls-1" d="M212.33,87a22.26,22.26,0,0,1,7.24,3.1,4.21,4.21,0,0,1,1.58,1.9,5.43,5.43,0,0,1,.2,2.21c-.14,1.17.58,1.69,1.45,2.2a3.16,3.16,0,0,0,1.56.31,6.3,6.3,0,0,1,3.76,1.08c2.13,1.48,2.65,4.33,4.64,5.94a1.58,1.58,0,0,0,1.72.32c-2.22,1-4.08-3.29-5.3-4.63a4.64,4.64,0,0,0-4.75-1.65,4.58,4.58,0,0,1-4-1.28,3.45,3.45,0,0,1-.85-2.24c-.06-1.43-.23-1.76-1.2-2.31a14.1,14.1,0,0,0-3.2-1.29c-1-.31-2.53-.56-3.58-.76l.76-2.9Z"/><path class="cls-1" d="M211.18,12.57a46.72,46.72,0,0,0,.89,17.89c1,4.2.86,8.53,1,12.78.07,10.26-.53,20.59-.64,30.8a52.72,52.72,0,0,0,.47,7.44c.62,5.12,1.35,10.42,1,15.63a34.94,34.94,0,0,1-.37,4.08,14.08,14.08,0,0,1-2.46,5.42c-.19.28,0,0-.06,0a1.72,1.72,0,0,0,.05,1c.95,2.86,3.52,5.32,5.68,7.43a5,5,0,0,1,.68.91,7.35,7.35,0,0,0,5.47,3.28c3.2.88,4.21,4.51,4.4,7.39-.56-2.26-1.61-5-3.84-6a5.89,5.89,0,0,0-1.73-.26,8.6,8.6,0,0,1-6.09-3.46c-2.77-2.57-5.92-4.67-7.33-8.45a4,4,0,0,1,.29-3.6c1.64-2.42,1.83-5.08,1.81-7.88.15-4.36-.85-10.68-1.41-15.06a56.32,56.32,0,0,1-.59-7.92c.16-10.34,1-20.54,1.27-30.83A66,66,0,0,0,209.31,30a37.64,37.64,0,0,1,1.87-17.43Z"/><path class="cls-1" d="M54.57,82.73c2.46,5.11,6.29,11.85,3.55,17.58-1.77,3.46-6.34,4-9.7,3.1A8.43,8.43,0,0,1,43.29,99,16.24,16.24,0,0,1,45.08,82.3c2.48-2.7,7.63-3,9.49.43Zm-.41.28a3.29,3.29,0,0,0-2.71-1.39,4.06,4.06,0,0,0-3.34,2.78c-.08.55-.36,1.94-.48,2.5a37.08,37.08,0,0,0-.72,7.59c.06,1.77.32,3.56,1.7,4.68,1.86,1.38,5.55,1.69,7-.36,1.61-2.66,1.18-6.19.86-9.36A15.12,15.12,0,0,0,54.16,83Z"/><path class="cls-1" d="M48.9,80.23c1.41-3.26,5.84-2.94,8.67-2.54s6,1,7.85,3.47a1.25,1.25,0,0,1,.2.92,1.11,1.11,0,0,1-1.69.72,2.68,2.68,0,0,0-1.53-.28c-1.09,0-2.12.33-3.26.4a16,16,0,0,1-6.63-1.33,13.26,13.26,0,0,0,8-.36c1.43-.48,3.1-1,4.62-.29a1.09,1.09,0,0,0-1.52,1.47,3.54,3.54,0,0,0-.46-.32c-2.48-1.16-6-1-8.64-.37a2.59,2.59,0,0,0-1.26.64s0,0,.07,0a1.17,1.17,0,0,0,.37-.59L48.9,80.23Z"/><path class="cls-1" d="M59.71,94.06c1.65,2.4,1,4.23,1.51,6.67a5.72,5.72,0,0,0,4.08,5c.59.13,1.28.21,1.91.32a7.6,7.6,0,0,1-4.07,0,8.21,8.21,0,0,1-3.67-2.38c-1.36-1.68-1.95-3.73-2.86-5.57-.23-.51-.55-.8-.56-.63l3.66-3.41Z"/><path class="cls-1" d="M209.67,28.79a2.13,2.13,0,0,1-1.4-.39c-5.48-3.46-9.45-10.14-6.78-16.57.52-1.59,2-4.69,4.14-3.34a6.31,6.31,0,0,1,1.77,3.21,41.11,41.11,0,0,1,1.06,5c.63,4,1,8,1.21,12.05Zm-.5-3.95A70.71,70.71,0,0,0,206,12.2,5.47,5.47,0,0,0,204.64,10c-.07,0,0,0,0,0s-.13.14-.28.42c-3,6,.27,11.67,5.86,14.52l.11.06h0a1.82,1.82,0,0,0-1.22-.19Z"/><path class="cls-1" d="M208,28.08a2.64,2.64,0,0,1-.42-2.13,99.34,99.34,0,0,1,1.59-12.5c.77-3.14,1.71-9.11,5.35-10.28,3.68-.61,6.35,4.21,6.17,7.4-.6,7.34-7.4,13.17-12.69,17.51Zm3-2.67c4.44-4.66,12.49-14.2,5.55-19.74a2.72,2.72,0,0,0-1-.44c-3.61.68-3.85,15.05-3.94,18.41,0,.87,0,2.27,0,3.13a2,2,0,0,0-.58-1.36Z"/><path class="cls-1" d="M211.71,49.89a3.17,3.17,0,0,1-1.73-.24c-.53-.15-1.94-.63-2.47-.81-2.71-1-11.26-4-6.95-7.81,5.65-3.66,10.39,4.06,11.15,8.86Zm-1.58-3.74c-1.72-2.4-5.71-6.15-8.29-3,.13-.16-.07-.26.26,0,2.49,1.62,5.87,2.12,8.79,2.72l.76.13a3.46,3.46,0,0,0-1.52.16Z"/><path class="cls-1" d="M209.17,53.29a37.06,37.06,0,0,1,4.3-8.2c1.4-1.92,3.19-3.92,5.61-4.71,1.42-.54,3.84-.4,3.63,1.67a8.89,8.89,0,0,1-2.19,3.75A97.79,97.79,0,0,1,211,55.09c3.31-3.82,6.82-7.62,9.27-12a3.15,3.15,0,0,0,.37-1.15c0-.06,0,0,.07.21s.23.17.19.18c-2.32.38-3.74,2.51-4.9,4.46a34,34,0,0,0-3,7.72l-3.82-1.18Z"/></svg>