<svg id="Layer_1" data-name="Layer 1" xmlns="http://www.w3.org/2000/svg" viewBox="0 0 240 130"><defs><style>.cls-1{fill:none;stroke:#215dd6;stroke-miterlimit:10;stroke-width:1.7px;}</style></defs><path class="cls-1" d="M65.71,84.76a32.76,32.76,0,0,0,7.58,3.9c1.15.41,2.62.69,3.46-.18a.06.06,0,0,0,0-.07c-8-5.38-16.86-10.36-23-18C50.06,65.72,47,60.2,47.05,54.21a4.17,4.17,0,0,1,.42-1.94c1.08-2.11,3.3-1.66,4.8-.67a13.45,13.45,0,0,1,4.19,5.23c2.65,5.1,3.54,11,6.55,16a38.84,38.84,0,0,0,11.67,12A7.33,7.33,0,0,0,77.37,86a1.55,1.55,0,0,0,1.72-.91c.43-.93-.56-1.85-1.06-2.52C74,77.1,67.66,73,65.82,66.47c-.28-1-.41-2.14.62-2.76a2.16,2.16,0,0,1,2-.06c3.33,1.53,4.89,5.37,8.17,6.89a3.06,3.06,0,0,0,1.32.32c1.9,0,2.5-2.18,2.71-3.74,1.62-12.3-.27-24.85,1.23-37.18a3.41,3.41,0,0,1,1.66-2.58c1.82-1,3.32.37,4.37,1.69A32.69,32.69,0,0,1,93,60c-.22.61-.36,1.49.23,1.76a1.21,1.21,0,0,0,.73,0,15.52,15.52,0,0,0,4.33-2.11,6.94,6.94,0,0,1,4.59-1.18c3.58.67,2.86,4.84.19,6.16a16.85,16.85,0,0,1-4.36,1.06c-3,.56-4.61,1.9-4.81,5C93.51,77,96,82.36,100.16,86.82c4.82,5.19,10.43,10.53,18,10,4-.25,7.77-2,11.9-.87a6.36,6.36,0,0,1,3.12,2c.5.57,1,1.37.29,2.19a1.92,1.92,0,0,1-1.63.56L117,99c-6.25-1.06,6.08,4.26,9.74,4.73,10.38,1.34,21.86-2,30.71-7.29,6.85-4.1,11.73-10.37,15.31-17.41,2.66-5.23,4.71-10.75,7.11-16.1a35.52,35.52,0,0,1,3.91-7c1.21-1.57,3.19-3.1,5-2.07a2.89,2.89,0,0,1,1.25,1.5,6.19,6.19,0,0,1-.12,4c-1.42,5-4.46,9.41-7.83,13.38S175,80.38,171.77,84.48c-1.11,1.41-2.19,3-2.12,4.86A2.69,2.69,0,0,0,171,91.62c2.55,1.33,5-2.06,6.33-3.74.83-1,3.12-4.86,4.79-4.3,4.51,1.52-.65,8.34-2.17,10.36-11,14.59-31,20.66-48.36,22.57a116.61,116.61,0,0,1-28.92-.18c-5.9-.83-11.86-1.65-17.5-3.63A32.91,32.91,0,0,1,75.67,108c-1.81-1.41-7.37-7.63-2.77-9a3.57,3.57,0,0,1,2,0c3.28.87,3.41-2.54-.4-4.77S56.37,79.41,65.71,84.76Z"/><path class="cls-1" d="M188.94,90.87c0-.25,1.08-.63,1.3-.73.53-.24,1-.5,1.56-.77a32.46,32.46,0,0,0,2.95-1.73A36.72,36.72,0,0,0,200,83.47a50.92,50.92,0,0,0,8.29-10.64l0,0c1.61-2.7,3-5.53,4.5-8.28a14,14,0,0,1,1.3-2c1-1.27,2.19-2.53,4.07-2a4.33,4.33,0,0,1,3.5,3.88,13.43,13.43,0,0,1-.65,5.43A28.37,28.37,0,0,1,205.94,85.9a55.18,55.18,0,0,1-14.62,5,6.39,6.39,0,0,1-2.09.16C189,91,189,90.94,188.94,90.87Z"/><path class="cls-1" d="M48.75,98.5c-8.2-1.61-16.14-3.91-23.44-8a34.14,34.14,0,0,1-10-8.29C12,78,9.39,73.51,8.43,68.23c-.49-2.67-.21-5.25,2.06-7.18s4.39-1.88,6.46.26a11.33,11.33,0,0,1,1.83,2.53c1.39,2.62,2.77,5.25,4,8A58.64,58.64,0,0,0,39.62,93.27c2.17,1.78,4.86,2.93,7.32,4.34C47.52,98,49.32,98.63,48.75,98.5Z"/><path class="cls-1" d="M65.71,53.23a.3.3,0,0,1-.58,0C62.52,45.41,59.28,37.65,60,29a9.7,9.7,0,0,1,3.57-7.11c3.54-2.89,7-2,8.39,2.36a18.63,18.63,0,0,1-.54,13.48C70,40.87,68.5,44,67.3,47.16A48.62,48.62,0,0,0,65.71,53.23Z"/><path class="cls-1" d="M171,57.9a1.3,1.3,0,0,1-.2-.43c-1.15-3.94-2.24-7.9-3.53-11.79a31.26,31.26,0,0,1-.89-18.38,15.17,15.17,0,0,1,1.79-4.13c1.5-2.35,3.53-2.31,4.83.17a24.59,24.59,0,0,1,2.41,7.06c1.71,9.31-.11,14.54-2,21.64-.3,1.16-.69,2.3-1.08,3.44C172.16,55.89,171.54,58.5,171,57.9Z"/><path class="cls-1" d="M151.55,91.24a.12.12,0,0,1-.22-.08c.9-5.06,1.61-10.07,1-15.2a60.55,60.55,0,0,1-.64-7.47c0-3.71,2-6.4,5.16-8.13,4-1.94,5.71-.06,6.7,3.5a11.61,11.61,0,0,1-.27,5.28,44,44,0,0,1-4.35,10C156.66,83.31,154,87.24,151.55,91.24Z"/><path class="cls-1" d="M113.62,88.76a.58.58,0,0,1-1-.26,29.15,29.15,0,0,1-.23-10.4c.88-4.57,4.92-8.53,8.81-8.88,2.54-.23,5.86.53,7.16,2.72a9.06,9.06,0,0,1,.82,7.48,5.62,5.62,0,0,1-3.06,3.4,8.35,8.35,0,0,1-2.61.84C116.3,85.66,117.3,85.36,113.62,88.76Z"/><path class="cls-1" d="M182.06,48.11C181.69,46,180.92,44,181,41.83a3.28,3.28,0,0,1,.63-2.08,1.75,1.75,0,0,1,1.79-.74,1.54,1.54,0,0,1,1.1,1.35,8.87,8.87,0,0,1-.19,3.25,47.25,47.25,0,0,1-1.76,4.48C182.51,48.25,182.13,48.4,182.06,48.11Z"/><path class="cls-1" d="M225.13,55.27c1.14-2,2.13-4.05,3.43-5.93a2.74,2.74,0,0,1,1.81-1.2,1.66,1.66,0,0,1,1.84.57c.53.9.11,1.39-.16,2A6,6,0,0,1,230,52.83c-1.47,1-3.14,1.72-4.69,2.61A.13.13,0,0,1,225.13,55.27Z"/><path class="cls-1" d="M77.92,20.47c-.33-2.42-1.25-4.31-1.46-6.74a1.88,1.88,0,0,1,2-2.17c1.15.21,1.36,1.27,1.51,2.07a6.92,6.92,0,0,1-.41,3c-.43,1.43-1,2.81-1.58,4.21C77.92,21,78.1,20.43,77.92,20.47Z"/><path class="cls-1" d="M199.24,54.64c1.81-4,2.23-7.78,4.25-11.68a3.48,3.48,0,0,1,5.12-1.41c.84.61.85,3.25.31,4.61a12.28,12.28,0,0,1-3.52,4.22c-2,1.78-4.13,3.33-6.3,4.95C198.85,55.52,199.17,54.83,199.24,54.64Z"/><path class="cls-1" d="M35,60.25c-1.81-4-2.23-7.78-4.25-11.68a3.48,3.48,0,0,0-5.12-1.41c-.84.61-.85,3.26-.31,4.61A12.24,12.24,0,0,0,28.86,56c2,1.77,4.29,3.28,6.46,4.91C35.49,61.2,34.7,60.37,35,60.25Z"/><path class="cls-1" d="M103.44,45.56c-.34,3.8-3,5.78-5.71,7.79a.24.24,0,0,1-.38-.25c1.08-4.61,3.45-8.14,5.89-7.81A.24.24,0,0,1,103.44,45.56Z"/></svg>