<svg id="Layer_1" data-name="Layer 1" xmlns="http://www.w3.org/2000/svg" viewBox="0 0 240 130"><defs><style>.cls-1{fill:none;stroke:#215dd6;stroke-miterlimit:10;}</style></defs><path class="cls-1" d="M177.5,113c-1.63-2.26-9.95-14.91-2.46-28.29a.31.31,0,0,1,.52,0C177.36,87,186.27,99.28,178,113A.28.28,0,0,1,177.5,113Z"/><path class="cls-1" d="M177.57,112.9c-.72-2.69-3.95-17.48,7.84-27.29a.31.31,0,0,1,.48.19c.87,2.75,4.78,17.43-7.89,27.29A.28.28,0,0,1,177.57,112.9Z"/><path class="cls-1" d="M177.66,112.84c.3-2.77,2.58-17.74,17.11-22.67a.3.3,0,0,1,.38.34c-.17,2.89-1.79,18-17.15,22.66A.29.29,0,0,1,177.66,112.84Z"/><path class="cls-1" d="M177.78,112.81c1.27-2.48,8.76-15.64,24.09-15a.31.31,0,0,1,.23.46c-1.19,2.63-8.12,16.15-24.12,15A.28.28,0,0,1,177.78,112.81Z"/><path class="cls-1" d="M177.89,112.83c2.08-1.86,13.79-11.46,27.88-5.41a.32.32,0,0,1,.06.52c-2.06,2-13.37,12.17-27.9,5.36A.28.28,0,0,1,177.89,112.83Z"/><path class="cls-1" d="M120,31.86c-2.24-1.24-14-8.45-11.07-21.41a.34.34,0,0,1,.48-.17c2.4,1.19,14.61,7.94,11,21.44A.3.3,0,0,1,120,31.86Z"/><path class="cls-1" d="M120,31.86c-1.89-1.6-11.64-10.72-5.9-23.15a.35.35,0,0,1,.51-.09c2,1.58,12.33,10.32,5.86,23.18A.31.31,0,0,1,120,31.86Z"/><path class="cls-1" d="M120,31.86c-1.46-1.91-8.85-12.6-.52-24a.34.34,0,0,1,.52,0c1.62,1.91,9.61,12.31.47,24.05A.3.3,0,0,1,120,31.86Z"/><path class="cls-1" d="M99.86,77.51c-2.76.38-17.83,1.8-26.13-11.09A.3.3,0,0,1,74,66c2.84-.53,17.89-2.63,26.14,11.13A.29.29,0,0,1,99.86,77.51Z"/><path class="cls-1" d="M99.81,77.4c-2.71-.63-17.3-4.7-20.43-19.72a.31.31,0,0,1,.39-.34c2.84.52,17.64,4,20.41,19.76A.28.28,0,0,1,99.81,77.4Z"/><path class="cls-1" d="M99.8,77.28c-2.31-1.56-14.46-10.59-12-25.73a.32.32,0,0,1,.49-.18c2.46,1.51,15,10,12,25.77A.28.28,0,0,1,99.8,77.28Z"/><path class="cls-1" d="M99.83,77.17c-1.6-2.29-9.71-15.07-2-28.32a.3.3,0,0,1,.51,0c1.77,2.29,10.47,14.75,2,28.34A.28.28,0,0,1,99.83,77.17Z"/><path class="cls-1" d="M99.9,77.07c-.67-2.7-3.67-17.54,8.29-27.15a.31.31,0,0,1,.48.19c.82,2.77,4.49,17.51-8.34,27.16A.28.28,0,0,1,99.9,77.07Z"/><path class="cls-1" d="M182.64,59.09c.17-2.57,1.7-16.42,15.26-20a.33.33,0,0,1,.38.35c0,2.69-.94,16.72-15.3,20A.3.3,0,0,1,182.64,59.09Z"/><path class="cls-1" d="M182.64,59.09c.43-2.51,3.38-16,17.4-18.12a.33.33,0,0,1,.35.39C200.07,44,197.74,57.69,183,59.45A.31.31,0,0,1,182.64,59.09Z"/><path class="cls-1" d="M182.64,59.09c.69-2.43,5-15.36,19.37-16.07a.33.33,0,0,1,.31.41c-.58,2.56-4.33,15.79-19.41,16A.3.3,0,0,1,182.64,59.09Z"/><path class="cls-1" d="M48.9,72c-2.56.3-16.46,1.35-22.45-11.33a.34.34,0,0,1,.28-.44c2.65-.45,16.6-2.15,22.43,11.37A.31.31,0,0,1,48.9,72Z"/><path class="cls-1" d="M48.9,72c-2.55,0-16.32-.39-21-13.78a.33.33,0,0,1,.32-.41c2.65-.18,16.54-.4,21,13.82A.31.31,0,0,1,48.9,72Z"/><path class="cls-1" d="M48.9,72c-2.51-.24-16-2.13-19.36-16.09a.33.33,0,0,1,.35-.38c2.62.1,16.32,1.35,19.34,16.13A.31.31,0,0,1,48.9,72Z"/><path class="cls-1" d="M77.59,113.28c-2.54.88-16.61,5-28.78-6a.28.28,0,0,1,.08-.49,26.83,26.83,0,0,1,28.8,6.06A.26.26,0,0,1,77.59,113.28Z"/><path class="cls-1" d="M77.59,113.28c-2.67.32-17.3,1.38-26.83-12a.29.29,0,0,1,.18-.46,26.82,26.82,0,0,1,26.84,12.07A.26.26,0,0,1,77.59,113.28Z"/><path class="cls-1" d="M77.59,113.28c-2.67-.26-17.2-2.35-23.65-17.47a.29.29,0,0,1,.28-.41,26.83,26.83,0,0,1,23.64,17.52A.26.26,0,0,1,77.59,113.28Z"/><path class="cls-1" d="M77.59,113.28c-2.56-.82-16.3-6-19.37-22.11a.29.29,0,0,1,.36-.35A26.83,26.83,0,0,1,77.93,113,.25.25,0,0,1,77.59,113.28Z"/><path class="cls-1" d="M143.33,79.81c-1.6-2.16-9.79-14.34-2.89-29.26a.29.29,0,0,1,.49-.07,26.82,26.82,0,0,1,2.85,29.29A.26.26,0,0,1,143.33,79.81Z"/><path class="cls-1" d="M143.33,79.81c-1.1-2.45-6.5-16.1,3.42-29.2a.28.28,0,0,1,.5,0,26.83,26.83,0,0,1-3.47,29.21A.26.26,0,0,1,143.33,79.81Z"/><path class="cls-1" d="M143.33,79.81c-.56-2.63-2.92-17.11,9.58-27.8a.28.28,0,0,1,.47.15A26.83,26.83,0,0,1,143.76,80,.26.26,0,0,1,143.33,79.81Z"/><path class="cls-1" d="M143.33,79.81c0-2.69.8-17.34,15.29-25.11a.29.29,0,0,1,.44.24,26.84,26.84,0,0,1-15.34,25.11A.26.26,0,0,1,143.33,79.81Z"/><path class="cls-1" d="M126.3,125c1.39-2.29,9.46-14.34,24.2-10.8a.35.35,0,0,1,.2.51c-1.32,2.47-8.88,15-24.24,10.77A.33.33,0,0,1,126.3,125Z"/><path class="cls-1" d="M126.15,125c-.06-2.79.31-17.93,14.1-24.65a.31.31,0,0,1,.42.29c.2,2.89.5,18.08-14.14,24.64A.28.28,0,0,1,126.15,125Z"/><path class="cls-1" d="M126,125.15c-1.47-2.24-9-14.87-1.21-29.37a.28.28,0,0,1,.49,0,26.82,26.82,0,0,1,1.17,29.4A.26.26,0,0,1,126,125.15Z"/><path class="cls-1" d="M126,125.33c-2.35-.88-14.91-6.33-16.08-23.25a.32.32,0,0,1,.38-.36c2.48.76,15.3,5.52,16.06,23.3A.28.28,0,0,1,126,125.33Z"/><path class="cls-1" d="M126.09,125.48c-2.36.82-15.36,4.56-25-8.53a.36.36,0,0,1,.13-.54c2.4-1,15.26-5.48,25,8.58A.33.33,0,0,1,126.09,125.48Z"/></svg>