<svg id="Layer_1" data-name="Layer 1" xmlns="http://www.w3.org/2000/svg" viewBox="0 0 75 65"><defs><style>.cls-1,.cls-2{fill:none;stroke-miterlimit:10;stroke-width:1.42px;}.cls-1{stroke:#2f383a;}.cls-2{stroke:#215dd6;}</style></defs><path class="cls-1" d="M37.4,39.68C39,37.13,48.46,23.74,65,28.12a.4.4,0,0,1,.21.59C63.64,31.45,54.79,45.4,37.58,40.23A.38.38,0,0,1,37.4,39.68Z"/><path class="cls-1" d="M37.23,39.71c0-3.14.82-20.21,16.55-27.43a.34.34,0,0,1,.47.34c.14,3.26.09,20.4-16.6,27.43A.33.33,0,0,1,37.23,39.71Z"/><path class="cls-1" d="M37.11,39.86c-1.61-2.58-9.72-17-.61-33.18a.32.32,0,0,1,.56,0,30.27,30.27,0,0,1,.56,33.2A.29.29,0,0,1,37.11,39.86Z"/><path class="cls-1" d="M37.08,40.05c-2.63-1-16.66-7.53-17.54-26.65A.36.36,0,0,1,20,13c2.77.92,17.11,6.62,17.5,26.7A.32.32,0,0,1,37.08,40.05Z"/><path class="cls-1" d="M37.15,40.23C34.47,41.09,19.71,45,9.17,30a.4.4,0,0,1,.16-.6c2.73-1.06,17.36-5.79,28,10.33A.37.37,0,0,1,37.15,40.23Z"/><circle class="cls-2" cx="37.18" cy="50.39" r="5.65"/></svg>