<svg id="Layer_1" data-name="Layer 1" xmlns="http://www.w3.org/2000/svg" viewBox="0 0 75 65"><defs><style>.cls-1,.cls-2{fill:none;stroke-miterlimit:10;stroke-width:1.42px;}.cls-1{stroke:#215dd6;}.cls-2{stroke:#2f383a;}</style></defs><circle class="cls-1" cx="38.64" cy="12.62" r="7.81"/><path class="cls-2" d="M33.94,31.09H31.11a1,1,0,0,1,1,.9V53.36a1,1,0,0,1-1,.9h3.07a0,0,0,0,1,0,0v3.49a0,0,0,0,1,0,.05H24.6a0,0,0,0,1,0-.05V54.31a0,0,0,0,1,.05-.05h3.07a1,1,0,0,1-1-.88V32a1,1,0,0,1,1-.9H24.85a.29.29,0,0,1-.29-.3v-3a.29.29,0,0,1,.29-.29h9.09a.29.29,0,0,1,.29.29v3A.29.29,0,0,1,33.94,31.09Z"/><path class="cls-2" d="M51.57,31.09H48.74a1,1,0,0,1,1,.9V53.36a1,1,0,0,1-1,.9h3.07a0,0,0,0,1,0,0v3.49a0,0,0,0,1,0,.05H42.23a0,0,0,0,1,0-.05V54.31a0,0,0,0,1,0-.05h3.08a1,1,0,0,1-1-.88V32a1,1,0,0,1,1-.9H42.48a.29.29,0,0,1-.29-.3v-3a.29.29,0,0,1,.29-.29h9.09a.29.29,0,0,1,.29.29v3A.29.29,0,0,1,51.57,31.09Z"/><path class="cls-2" d="M21.5,21.76H18.67a1,1,0,0,1,1,.9V44a1,1,0,0,1-1,.9h3.07a0,0,0,0,1,.05,0v3.49a0,0,0,0,1-.05,0H12.16a0,0,0,0,1,0,0V45a0,0,0,0,1,.05,0h3.07a1,1,0,0,1-1-.88V22.66a1,1,0,0,1,1-.9H12.41a.29.29,0,0,1-.29-.3v-3a.29.29,0,0,1,.29-.29H21.5a.29.29,0,0,1,.29.29v3A.29.29,0,0,1,21.5,21.76Z"/><path class="cls-2" d="M64,21.76H61.18a1,1,0,0,1,1,.9V44a1,1,0,0,1-1,.9h3.07a0,0,0,0,1,0,0v3.49a0,0,0,0,1,0,0H54.67a0,0,0,0,1,0,0V45a0,0,0,0,1,0,0h3.07a1,1,0,0,1-1-.88V22.66a1,1,0,0,1,1-.9H54.92a.29.29,0,0,1-.29-.3v-3a.29.29,0,0,1,.29-.29H64a.29.29,0,0,1,.29.29v3A.29.29,0,0,1,64,21.76Z"/></svg>