<svg id="Layer_1" data-name="Layer 1" xmlns="http://www.w3.org/2000/svg" viewBox="0 0 240 130"><defs><style>.cls-1{fill:none;stroke:#215dd6;stroke-miterlimit:10;stroke-width:0.79px;}</style></defs><g id="Artboard_6" data-name="Artboard 6"><path id="Path_103" data-name="Path 103" class="cls-1" d="M56.49,84H51.92l0-4.46h4.58Z"/><path id="Path_104" data-name="Path 104" class="cls-1" d="M61.08,88.46H56.51l0-4.46h4.57Z"/><path id="Path_105" data-name="Path 105" class="cls-1" d="M65.67,92.91H61.1l0-4.46h4.57Z"/><path id="Path_106" data-name="Path 106" class="cls-1" d="M70.26,97.37H65.68V92.91h4.57Z"/><path id="Path_107" data-name="Path 107" class="cls-1" d="M74.84,101.83H70.27V97.37h4.57Z"/><path id="Path_108" data-name="Path 108" class="cls-1" d="M79.43,106.29H74.86l0-4.46h4.57Z"/><path id="Path_109" data-name="Path 109" class="cls-1" d="M97.12,57.14H92.55l0-4.46H97.1Z"/><path id="Path_110" data-name="Path 110" class="cls-1" d="M101.71,61.6H97.14l0-4.46h4.57Z"/><path id="Path_111" data-name="Path 111" class="cls-1" d="M106.3,66.05h-4.57l0-4.47h4.57Z"/><path id="Path_112" data-name="Path 112" class="cls-1" d="M110.88,70.51h-4.57V66.05h4.57Z"/><path id="Path_113" data-name="Path 113" class="cls-1" d="M115.47,75H110.9l0-4.46h4.57Z"/><path id="Path_114" data-name="Path 114" class="cls-1" d="M120.06,79.42h-4.57l0-4.46H120Z"/><path id="Path_119" data-name="Path 119" class="cls-1" d="M31.64,75.06H27.07V70.6h4.57Z"/><path id="Path_120" data-name="Path 120" class="cls-1" d="M36.24,79.51H31.67l0-4.46h4.56Z"/><path id="Path_121" data-name="Path 121" class="cls-1" d="M115.51,84h4.57l0-4.46h-4.57Z"/><path id="Path_122" data-name="Path 122" class="cls-1" d="M111,88.41h4.57V84h-4.57Z"/><path id="Path_123" data-name="Path 123" class="cls-1" d="M106.39,92.87H111V88.41h-4.57Z"/><path id="Path_124" data-name="Path 124" class="cls-1" d="M101.84,97.34h4.57l0-4.46h-4.57Z"/><path id="Path_125" data-name="Path 125" class="cls-1" d="M97.29,101.81h4.57l0-4.46H97.27Z"/><path id="Path_126" data-name="Path 126" class="cls-1" d="M92.73,106.27H97.3v-4.46H92.72Z"/><path id="Path_127" data-name="Path 127" class="cls-1" d="M31.67,84h4.57l0-4.46H31.65Z"/><path id="Path_128" data-name="Path 128" class="cls-1" d="M27.11,88.5h4.58l0-4.46H27.1Z"/><path id="Path_136" data-name="Path 136" class="cls-1" d="M224.08,74.84l4.57,0V70.36l-4.57,0Z"/><path id="Path_137" data-name="Path 137" class="cls-1" d="M219.52,79.33l4.57,0V74.84l-4.57,0Z"/><path id="Path_138" data-name="Path 138" class="cls-1" d="M224.11,83.82l-4.57,0V79.39l4.57,0Z"/><path id="Path_139" data-name="Path 139" class="cls-1" d="M228.69,88.26l-4.57,0V83.82l4.57,0Z"/><path id="Path_143" data-name="Path 143" class="cls-1" d="M74.67,57.16h4.57V52.69H74.66Z"/><path id="Path_144" data-name="Path 144" class="cls-1" d="M70.12,61.63h4.57l0-4.46H70.1Z"/><path id="Path_145" data-name="Path 145" class="cls-1" d="M65.57,66.09h4.57l0-4.46H65.55Z"/><path id="Path_146" data-name="Path 146" class="cls-1" d="M61,70.56h4.57V66.09H61Z"/><path id="Path_147" data-name="Path 147" class="cls-1" d="M56.45,75H61V70.56H56.44Z"/><path id="Path_148" data-name="Path 148" class="cls-1" d="M51.9,79.48h4.57l0-4.46H51.89Z"/><path id="Path_149" data-name="Path 149" class="cls-1" d="M92.74,108.89H79.44v-2.61l13.3,0Z"/><path id="Path_150" data-name="Path 150" class="cls-1" d="M135.75,83.93H120.08l0-4.46h15.67Z"/><path id="Path_151" data-name="Path 151" class="cls-1" d="M219.55,83.85H203.87V79.4h15.67Z"/><path id="Path_152" data-name="Path 152" class="cls-1" d="M51.92,84H36.25l0-4.46H51.9Z"/><path id="Path_153" data-name="Path 153" class="cls-1" d="M92.55,57.14H79.24V52.69h13.3Z"/><path id="Path_154" data-name="Path 154" class="cls-1" d="M92.75,111.5H79.45V108.9h13.3Z"/><path id="Path_155" data-name="Path 155" class="cls-1" d="M140.32,83.92h-4.57l0-4.46h4.57Z"/><path id="Path_156" data-name="Path 156" class="cls-1" d="M144.91,88.38h-4.57l0-4.46h4.57Z"/><path id="Path_157" data-name="Path 157" class="cls-1" d="M149.49,92.83h-4.57V88.38h4.57Z"/><path id="Path_158" data-name="Path 158" class="cls-1" d="M154.08,97.29h-4.57l0-4.46h4.57Z"/><path id="Path_159" data-name="Path 159" class="cls-1" d="M158.67,101.75H154.1l0-4.46h4.57Z"/><path id="Path_160" data-name="Path 160" class="cls-1" d="M163.26,106.21h-4.57l0-4.47h4.57Z"/><path id="Path_161" data-name="Path 161" class="cls-1" d="M199.34,83.87h4.57l0-4.46h-4.57Z"/><path id="Path_162" data-name="Path 162" class="cls-1" d="M194.78,88.33h4.57l0-4.46h-4.57Z"/><path id="Path_163" data-name="Path 163" class="cls-1" d="M190.23,92.8h4.57l0-4.46h-4.57Z"/><path id="Path_164" data-name="Path 164" class="cls-1" d="M185.67,97.26h4.57V92.79h-4.58Z"/><path id="Path_165" data-name="Path 165" class="cls-1" d="M181.12,101.72h4.56V97.26H181.1Z"/><path id="Path_166" data-name="Path 166" class="cls-1" d="M176.56,106.19h4.58l0-4.46h-4.57Z"/><path id="Path_167" data-name="Path 167" class="cls-1" d="M176.57,108.8l-13.3,0v-2.61l13.3,0Z"/><path id="Path_168" data-name="Path 168" class="cls-1" d="M176.58,111.42l-13.3,0v-2.62l13.3,0Z"/><path id="Path_169" data-name="Path 169" class="cls-1" d="M181,57.12h-4.57l0-4.46h4.57Z"/><path id="Path_170" data-name="Path 170" class="cls-1" d="M185.54,61.57H181V57.12h4.57Z"/><path id="Path_171" data-name="Path 171" class="cls-1" d="M190.12,66h-4.57V61.57h4.57Z"/><path id="Path_172" data-name="Path 172" class="cls-1" d="M194.71,70.49h-4.57l0-4.46h4.57Z"/><path id="Path_173" data-name="Path 173" class="cls-1" d="M199.3,75h-4.57l0-4.45h4.57Z"/><path id="Path_174" data-name="Path 174" class="cls-1" d="M203.89,79.4h-4.57l0-4.46h4.57Z"/><path id="Path_175" data-name="Path 175" class="cls-1" d="M158.5,57.14h4.57l0-4.46h-4.57Z"/><path id="Path_176" data-name="Path 176" class="cls-1" d="M154,61.61h4.57l0-4.47h-4.57Z"/><path id="Path_177" data-name="Path 177" class="cls-1" d="M149.39,66.07H154V61.61h-4.58Z"/><path id="Path_178" data-name="Path 178" class="cls-1" d="M144.84,70.54h4.57l0-4.46h-4.56Z"/><path id="Path_179" data-name="Path 179" class="cls-1" d="M140.29,75h4.57l0-4.46h-4.57Z"/><path id="Path_180" data-name="Path 180" class="cls-1" d="M135.73,79.47h4.57V75h-4.57Z"/><path id="Path_181" data-name="Path 181" class="cls-1" d="M176.37,57.13h-13.3l0-4.46,13.31,0Z"/><path id="Path_182" data-name="Path 182" class="cls-1" d="M86.38,72.86l2.9,2.93a.67.67,0,0,1,.16.27l.42,1.16a.9.9,0,0,1,0,.28L89.85,82v3.19a.67.67,0,0,1-.63.71H82.83a.68.68,0,0,1-.64-.72V77.74l.35-1.64a.7.7,0,0,1,.19-.36l2.82-2.88a.57.57,0,0,1,.82,0h0Z"/><path id="Path_184" data-name="Path 184" class="cls-1" d="M170.21,72.78l2.89,2.93a.69.69,0,0,1,.17.27l.41,1.16a.92.92,0,0,1,0,.28l0,4.45v3.19a.69.69,0,0,1-.63.72h-6.39a.69.69,0,0,1-.64-.73V77.83a.48.48,0,0,1,0-.17l.34-1.64a.72.72,0,0,1,.2-.36l2.81-2.88a.58.58,0,0,1,.82,0l0,0Z"/><path id="Path_231" data-name="Path 231" class="cls-1" d="M97.34,116H92.77l0-4.46h4.57Z"/><path id="Path_232" data-name="Path 232" class="cls-1" d="M101.93,120.43H97.36l0-4.46h4.57Z"/><path id="Path_233" data-name="Path 233" class="cls-1" d="M181.16,116h-4.57v-4.46h4.57Z"/><path id="Path_234" data-name="Path 234" class="cls-1" d="M185.75,120.43h-4.57l0-4.46h4.57Z"/></g><g id="Artboard_6-2" data-name="Artboard 6-2"><path id="Path_107-2" data-name="Path 107-2" class="cls-1" d="M74.84,43H70.27V38.51h4.57Z"/><path id="Path_108-2" data-name="Path 108-2" class="cls-1" d="M79.43,47.43H74.86l0-4.47h4.57Z"/><path id="Path_112-2" data-name="Path 112-2" class="cls-1" d="M110.88,11.65h-4.57V7.2h4.57Z"/><path id="Path_113-2" data-name="Path 113-2" class="cls-1" d="M115.47,16.11H110.9l0-4.46h4.57Z"/><path id="Path_114-2" data-name="Path 114-2" class="cls-1" d="M120.06,20.56h-4.57l0-4.46H120Z"/><path id="Path_121-2" data-name="Path 121-2" class="cls-1" d="M115.51,25.09h4.57l0-4.46h-4.57Z"/><path id="Path_122-2" data-name="Path 122-2" class="cls-1" d="M111,29.56h4.57l0-4.46h-4.56Z"/><path id="Path_123-2" data-name="Path 123-2" class="cls-1" d="M106.39,34H111V29.56h-4.57Z"/><path id="Path_124-2" data-name="Path 124-2" class="cls-1" d="M101.84,38.49h4.57l0-4.47h-4.57Z"/><path id="Path_125-2" data-name="Path 125-2" class="cls-1" d="M97.29,43h4.57l0-4.47H97.27Z"/><path id="Path_126-2" data-name="Path 126-2" class="cls-1" d="M92.73,47.42H97.3V43H92.72Z"/><path id="Path_149-2" data-name="Path 149-2" class="cls-1" d="M92.74,50H79.44V47.43h13.3Z"/><path id="Path_150-2" data-name="Path 150-2" class="cls-1" d="M135.75,25.07l-15.67,0,0-4.46,15.67,0Z"/><path id="Path_154-2" data-name="Path 154-2" class="cls-1" d="M92.75,52.64l-13.3,0V50h13.3Z"/><path id="Path_155-2" data-name="Path 155-2" class="cls-1" d="M140.32,25.07h-4.57l0-4.46h4.57Z"/><path id="Path_156-2" data-name="Path 156-2" class="cls-1" d="M144.91,29.52h-4.57l0-4.46h4.57Z"/><path id="Path_157-2" data-name="Path 157-2" class="cls-1" d="M149.49,34h-4.57V29.52h4.57Z"/><path id="Path_158-2" data-name="Path 158-2" class="cls-1" d="M154.08,38.43h-4.57l0-4.46h4.57Z"/><path id="Path_159-2" data-name="Path 159-2" class="cls-1" d="M158.67,42.89H154.1l0-4.46h4.57Z"/><path id="Path_160-2" data-name="Path 160-2" class="cls-1" d="M163.26,47.35h-4.57l0-4.46h4.57Z"/><path id="Path_165-2" data-name="Path 165-2" class="cls-1" d="M181.12,42.87h4.56V38.4H181.1Z"/><path id="Path_166-2" data-name="Path 166-2" class="cls-1" d="M176.56,47.34h4.57l0-4.46h-4.57Z"/><path id="Path_167-2" data-name="Path 167-2" class="cls-1" d="M176.57,50h-13.3V47.35h13.3Z"/><path id="Path_168-2" data-name="Path 168-2" class="cls-1" d="M176.58,52.57h-13.3V50h13.3Z"/><path id="Path_178-2" data-name="Path 178-2" class="cls-1" d="M144.84,11.68h4.57l0-4.46h-4.56Z"/><path id="Path_179-2" data-name="Path 179-2" class="cls-1" d="M140.29,16.15h4.57l0-4.46h-4.57Z"/><path id="Path_180-2" data-name="Path 180-2" class="cls-1" d="M135.73,20.61h4.57l0-4.46h-4.56Z"/><path id="Path_185" data-name="Path 185" class="cls-1" d="M128.37,46.17l2.89,2.93a.59.59,0,0,1,.17.27l.41,1.16a.92.92,0,0,1,0,.28l0,4.45,0,3.19a.69.69,0,0,1-.63.72h-6.37a.69.69,0,0,1-.64-.73V51.22a.48.48,0,0,1,0-.17l.34-1.63a.79.79,0,0,1,.2-.37l2.81-2.87a.57.57,0,0,1,.82,0h0Z"/><path id="Path_227" data-name="Path 227" class="cls-1" d="M74.84,116.35h4.57v-4.47H74.83Z"/><path id="Path_228" data-name="Path 228" class="cls-1" d="M70.29,120.82h4.57l0-4.46H70.27Z"/><path id="Path_229" data-name="Path 229" class="cls-1" d="M158.7,116.35h4.57l0-4.47h-4.57Z"/><path id="Path_230" data-name="Path 230" class="cls-1" d="M154.14,120.82h4.58l0-4.46h-4.57Z"/></g></svg>