<svg id="Layer_1" data-name="Layer 1" xmlns="http://www.w3.org/2000/svg" viewBox="0 0 240 130"><defs><style>.cls-1,.cls-2{fill:none;stroke:#215dd6;stroke-linecap:round;}.cls-1{stroke-miterlimit:10;stroke-width:2.4px;}.cls-2{stroke-linejoin:round;stroke-width:2px;}</style></defs><line class="cls-1" x1="31.47" y1="92.01" x2="34.25" y2="107.34"/><line class="cls-1" x1="55.56" y1="103.8" x2="58.35" y2="119.14"/><line class="cls-1" x1="77.56" y1="90.02" x2="80.35" y2="105.35"/><line class="cls-1" x1="105.71" y1="98.79" x2="108.5" y2="114.12"/><line class="cls-1" x1="112.34" y1="70.69" x2="115.13" y2="86.03"/><line class="cls-1" x1="139.67" y1="71.95" x2="142.46" y2="87.29"/><line class="cls-1" x1="157.71" y1="96.14" x2="160.5" y2="111.47"/><line class="cls-1" x1="133.11" y1="102.11" x2="135.9" y2="117.44"/><line class="cls-1" x1="183.72" y1="91.12" x2="186.5" y2="106.45"/><line class="cls-1" x1="213.9" y1="93.33" x2="216.69" y2="108.67"/><path class="cls-2" d="M87.78,58.92v1.63a1,1,0,0,1,0,.16,2,2,0,0,0-.05.24,9.45,9.45,0,0,1-4,7,9.9,9.9,0,0,1-5.46,2.13c-2,0-4,.18-6,.18q-18.69,0-37.37-.07c-3.22,0-6.44-.12-9.66-.22a9.08,9.08,0,0,1-2.89-.63,11.38,11.38,0,0,1-3.68-2.59,11.82,11.82,0,0,1-2.15-14C19,48.2,23,46.11,28.09,46.31l.67,0A1.52,1.52,0,0,0,30,45.63a16,16,0,0,1,1.25-2.07,11.7,11.7,0,0,1,12-4.63,15.14,15.14,0,0,1,3.51,1.25c.53.23.57.21.91-.26a13.71,13.71,0,0,1,7-5.1c.86-.29,1.78-.45,2.67-.66a.44.44,0,0,1,.16,0h2l.41.06a13.63,13.63,0,0,1,4.17,1,14.32,14.32,0,0,1,5.66,4.47,12.47,12.47,0,0,1,2.71,7.48v.13a.72.72,0,0,0,.8.7l.6-.07a13,13,0,0,1,5.44.46,11.59,11.59,0,0,1,7.91,8.19,21.35,21.35,0,0,1,.46,2.25S87.78,58.87,87.78,58.92Z"/><path class="cls-2" d="M215,60.47v1.34a.57.57,0,0,1,0,.13,1.42,1.42,0,0,0,0,.2,7.81,7.81,0,0,1-3.27,5.74,8.2,8.2,0,0,1-4.51,1.75c-1.63,0-3.27.15-4.9.15q-15.37,0-30.76-.06c-2.65,0-5.3-.1-7.95-.18a7.58,7.58,0,0,1-2.38-.52,9.41,9.41,0,0,1-3-2.13,9.75,9.75,0,0,1-1.77-11.53,9.64,9.64,0,0,1,9.49-5.27l.56,0a1.24,1.24,0,0,0,1-.58,15.05,15.05,0,0,1,1-1.7A9.64,9.64,0,0,1,178.36,44a12.76,12.76,0,0,1,2.89,1c.44.19.47.18.75-.21a11.32,11.32,0,0,1,5.79-4.2c.71-.24,1.46-.37,2.2-.55h1.82l.34.05a11.51,11.51,0,0,1,3.42.79,11.87,11.87,0,0,1,4.67,3.68,10.26,10.26,0,0,1,2.22,6.16.41.41,0,0,1,0,.11.58.58,0,0,0,.66.57l.49,0a10.62,10.62,0,0,1,4.48.38,9.56,9.56,0,0,1,6.51,6.74,14.42,14.42,0,0,1,.37,1.85A.37.37,0,0,1,215,60.47Z"/><path class="cls-2" d="M93.49,25.66c.11-.55.17-1.12.33-1.66a8.64,8.64,0,0,1,5.87-6.07,9.62,9.62,0,0,1,4-.34l.44.05a.52.52,0,0,0,.59-.52s0-.06,0-.1a9.2,9.2,0,0,1,2-5.54,9.81,9.81,0,0,1,7.28-4c.1,0,.2,0,.31,0H116c.66.16,1.33.28,2,.49a10.2,10.2,0,0,1,5.2,3.79c.25.34.28.36.68.18a11.82,11.82,0,0,1,2.6-.92,8.67,8.67,0,0,1,8.92,3.43,12.53,12.53,0,0,1,.92,1.54,1.14,1.14,0,0,0,.91.52l.5,0a8.88,8.88,0,0,1,7,15.12,8.4,8.4,0,0,1-2.73,1.92,6.9,6.9,0,0,1-2.14.47c-2.38.07-4.77.15-7.16.16q-13.83,0-27.68,0c-1.47,0-2.94-.1-4.41-.14a7.33,7.33,0,0,1-4-1.57,7,7,0,0,1-3-5.17,1.16,1.16,0,0,0,0-.18.37.37,0,0,1,0-.11V25.76A.34.34,0,0,1,93.49,25.66Z"/></svg>